<?xml version="1.0" encoding="UTF-8"?>
<svg id="Capa_1" xmlns="http://www.w3.org/2000/svg" viewBox="0 0 31.88 31.91">
  <defs>
    <style>
      .cls-1 {
        fill: #125548;
      }
    </style>
  </defs>
  <path class="cls-1" d="M28.82,4.58c1.52,1.89,2.42,4.05,2.81,6.23h0c.39,2.19.3,4.4-.19,6.55-.49,2.15-1.41,4.25-2.77,6.16-1.36,1.92-3.18,3.64-5.34,5.01-2.16,1.37-4.7,2.4-7.4,2.91-2.69.51-5.51.66-8.17.19-3.91-.69-5.73-4.05-7.24-6.19-.15-.04-.39-.6-.53-.67h0c.94.57,1.92,1.08,2.95,1.53.03,0,.04.03.07.04,1.74.75,3.6,1.29,5.53,1.58,2.15.32,4.36.33,6.46-.02,2.09-.34,4.08-1.09,5.84-2.14,3.55-2.09,5.96-5.4,6.87-9.03.46-1.81.57-3.68.27-5.49-.3-1.8-1.03-3.55-2.19-5-.6-.75-1.91-2.44-4.41-3.65-.89-.43-1.62-.78-2.7-.89-1.89-.2-4.21.38-5.62,1.91-.17.18-1.52,1.72-1.14,3.69.34,1.85,2.18,1.94,3.98,4.34,1.24,1.66,3.84,5.22,3.08,9.06-.32,1.61-1.01,2.17-1.45,2.42-1.18.68-2.7.37-3.9.13h-.02c-.92-.19-3.75-.8-5.87-3-1.85-1.92-2.11-3.94-2.32-5.65h0c-.15-1.21-.83-6.78,3.57-10.92.61-.57,2.27-2.11,4.97-2.99C15.74.12,17.32.03,17.64.01c.72-.03,1.47,0,2.14.06.76,0,1.72.14,2.73.43,1.23.34,2.53.93,3.63,1.67,1.12.73,2.04,1.61,2.67,2.41Z"/>
</svg>