<svg width="492" height="76" viewBox="0 0 492 76" fill="none" xmlns="http://www.w3.org/2000/svg">
<path d="M22.6496 67.83C14.9296 67.83 9.26964 64.82 5.71964 58.83C2.16964 52.84 0.389648 44.09 0.389648 32.61C0.389648 22.45 1.99963 14.6 5.21964 9.06999C8.43964 3.53999 13.7696 0.769989 21.2396 0.769989C27.5596 0.769989 32.3496 2.74999 35.6096 6.71999C38.8696 10.69 40.5196 16.26 40.5196 23.49C40.5196 25.6 40.2696 26.96 39.7396 27.62C39.2096 28.28 37.9196 28.61 35.8996 28.61C34.3296 28.61 33.3396 28.32 32.8896 27.78C32.4396 27.24 32.1896 26.25 32.1496 24.85C32.1096 22.66 31.9396 20.72 31.6496 19.03C31.3596 17.34 30.8696 15.6 30.1596 13.87C29.4496 12.14 28.3796 10.77 26.9396 9.81999C25.4996 8.86999 23.6796 8.36999 21.5296 8.36999C13.2296 8.36999 9.09964 16.38 9.09964 32.4C9.09964 42.02 10.1696 49.04 12.3196 53.46C14.4696 57.88 18.0196 60.07 23.0196 60.07C25.6196 60.07 27.6896 59.33 29.2096 57.84C30.7296 56.35 31.4796 54.21 31.4796 51.36H24.2896C22.5596 51.36 21.6896 50.16 21.6896 47.73C21.6896 45.09 22.6796 43.77 24.6596 43.77H36.3896C38.7396 43.77 39.9396 46.04 39.9396 50.63C39.9396 56.2 38.3296 60.46 35.1096 63.35C31.8896 66.24 27.7996 67.69 22.8496 67.69L22.6396 67.86L22.6496 67.83Z" fill="#125548"/>
<path d="M87.6497 61.64C87.8197 62.01 87.8997 62.42 87.8997 62.88C87.8997 63.95 87.3598 64.86 86.2498 65.61C85.1398 66.36 83.8998 66.72 82.5298 66.72C81.6598 66.72 81.0798 66.55 80.7498 66.22C80.4198 65.89 80.0898 65.27 79.7198 64.4L73.8997 48.83C70.1798 49.9 65.8898 50.44 60.9698 50.44V63.2C60.9698 65.51 59.4798 66.67 56.4698 66.67C53.8298 66.67 52.5098 65.56 52.5098 63.28V11.7C52.5098 9.22 54.4498 6.79 58.2898 4.35C62.1298 1.91 66.5497 0.720001 71.5497 0.720001C78.5297 0.720001 84.0197 2.99 87.9897 7.53C91.9597 12.07 93.9398 17.52 93.9398 23.92C93.9398 33.79 89.8098 41.06 81.5098 45.72L87.6598 61.62L87.6497 61.64ZM61.0497 43.3C65.5097 43.3 69.5197 42.68 73.1097 41.44C76.6997 40.2 79.6798 38.14 82.0298 35.25C84.3798 32.36 85.5797 28.77 85.5797 24.51C85.5797 20.5 84.2997 16.83 81.7397 13.48C79.1797 10.13 75.8797 8.44 71.8297 8.44C69.8097 8.44 67.4498 8.89 64.8098 9.8C62.1698 10.71 60.8498 11.95 60.8498 13.52L61.0598 43.29L61.0497 43.3Z" fill="#125548"/>
<path d="M109.699 66.68C107.059 66.68 105.739 65.4 105.739 62.8V6.38999C105.739 4.56999 106.069 3.32999 106.729 2.66999C107.389 2.00999 108.509 1.67999 110.029 1.67999H133.899C136.089 1.67999 137.199 2.91999 137.199 5.39999C137.199 7.99999 136.169 9.27999 134.139 9.27999H114.189V42.98H132.609C134.179 42.98 134.959 44.26 134.959 46.78C134.959 49.3 134.219 50.58 132.689 50.58H114.189V59.05H134.799C136.489 59.05 137.359 60.33 137.399 62.93C137.399 65.41 136.489 66.65 134.669 66.65L109.689 66.69L109.699 66.68Z" fill="#125548"/>
<path d="M152.98 66.68C150.34 66.68 149.02 65.4 149.02 62.8V6.38999C149.02 4.56999 149.35 3.32999 150.01 2.66999C150.67 2.00999 151.79 1.67999 153.31 1.67999H177.18C179.37 1.67999 180.48 2.91999 180.48 5.39999C180.48 7.99999 179.45 9.27999 177.42 9.27999H157.47V42.98H175.89C177.46 42.98 178.24 44.26 178.24 46.78C178.24 49.3 177.5 50.58 175.97 50.58H157.47V59.05H178.08C179.77 59.05 180.64 60.33 180.68 62.93C180.68 65.41 179.77 66.65 177.95 66.65L152.97 66.69L152.98 66.68Z" fill="#125548"/>
<path d="M229.959 67.21C228.679 67.21 227.559 66.92 226.659 66.38C225.759 65.84 225.299 65.02 225.299 63.9L225.219 49.2L201.099 16.91L202.629 63.08C202.669 64.61 202.299 65.68 201.469 66.3C200.639 66.92 199.569 67.21 198.209 67.21C195.609 67.21 194.249 66.1 194.119 63.82L192.259 6.5C192.259 6.13 192.259 5.67 192.219 5.18C192.179 4.69 192.259 4.23 192.429 3.78C192.599 3.33 192.839 2.91 193.129 2.5C193.419 2.09 193.869 1.76 194.489 1.55C195.109 1.34 195.849 1.22 196.679 1.22C198.039 1.22 199.119 1.51 199.899 2.13C200.679 2.75 201.759 3.99 203.159 5.85L226.079 37.32V6.14C226.079 5.03 226.159 4.16 226.289 3.54C226.419 2.92 226.829 2.38 227.489 1.93C228.149 1.48 229.099 1.23 230.339 1.23C231.949 1.23 233.069 1.6 233.679 2.39C234.289 3.18 234.629 4.54 234.629 6.52V63.18C234.629 65.82 233.099 67.14 230.049 67.14L229.969 67.22L229.959 67.21Z" fill="#125548"/>
<path d="M279.199 67.83C271.479 67.83 265.819 64.82 262.269 58.83C258.719 52.84 256.939 44.09 256.939 32.61C256.939 22.45 258.549 14.6 261.769 9.06999C264.989 3.53999 270.319 0.769989 277.789 0.769989C284.109 0.769989 288.899 2.74999 292.159 6.71999C295.419 10.69 297.069 16.26 297.069 23.49C297.069 25.6 296.819 26.96 296.289 27.62C295.759 28.28 294.469 28.61 292.449 28.61C290.879 28.61 289.889 28.32 289.439 27.78C288.989 27.24 288.739 26.25 288.699 24.85C288.659 22.66 288.489 20.72 288.199 19.03C287.909 17.34 287.419 15.6 286.709 13.87C285.999 12.14 284.929 10.77 283.489 9.81999C282.049 8.86999 280.229 8.36999 278.079 8.36999C269.779 8.36999 265.649 16.38 265.649 32.4C265.649 42.02 266.719 49.04 268.869 53.46C271.019 57.88 274.569 60.07 279.569 60.07C282.169 60.07 284.239 59.33 285.759 57.84C287.279 56.35 288.029 54.21 288.029 51.36H280.839C279.109 51.36 278.239 50.16 278.239 47.73C278.239 45.09 279.229 43.77 281.209 43.77H292.939C295.289 43.77 296.489 46.04 296.489 50.63C296.489 56.2 294.879 60.46 291.659 63.35C288.439 66.24 284.349 67.69 279.399 67.69L279.189 67.86L279.199 67.83Z" fill="#125548"/>
<path d="M424.51 67.71C422.69 67.71 421.17 67.34 419.93 66.64C418.69 65.94 417.91 64.99 417.62 63.79L403.66 6.13998C403.29 4.44998 403.78 3.20998 405.15 2.37998C406.52 1.54998 407.92 1.13998 409.4 1.13998C411.38 1.13998 412.54 1.87998 412.87 3.40998L424.68 56.35L439.34 3.89999C439.79 2.28999 441.03 1.45998 443.06 1.45998C444.59 1.45998 445.95 1.86998 447.15 2.73998C448.35 3.60998 448.72 4.79999 448.26 6.32999L431.16 63.65C430.71 65.05 430 66.09 429.01 66.71C428.02 67.33 426.53 67.66 424.55 67.66L424.51 67.7V67.71Z" fill="#125548"/>
<path d="M463.329 66.68C460.689 66.68 459.369 65.4 459.369 62.8V6.38999C459.369 4.56999 459.699 3.32999 460.359 2.66999C461.019 2.00999 462.139 1.67999 463.659 1.67999H487.529C489.719 1.67999 490.829 2.91999 490.829 5.39999C490.829 7.99999 489.799 9.27999 487.769 9.27999H467.819V42.98H486.239C487.809 42.98 488.589 44.26 488.589 46.78C488.589 49.3 487.849 50.58 486.319 50.58H467.819V59.05H488.429C490.119 59.05 490.989 60.33 491.029 62.93C491.029 65.41 490.119 66.65 488.299 66.65L463.319 66.69L463.329 66.68Z" fill="#125548"/>
<path d="M402.95 29.6C402.24 24.85 400.63 20.15 397.89 16.02C396.75 14.28 395.09 12.36 393.08 10.77C391.09 9.14999 388.76 7.87999 386.54 7.12999C384.72 6.49999 383 6.21999 381.63 6.19999C380.42 6.05999 379.06 5.99999 377.77 6.06999C377.19 6.09999 374.36 6.29999 371.19 7.54999C366.33 9.46999 363.33 12.82 362.24 14.06C354.3 23.12 355.55 35.29 355.81 37.87C356.19 41.6 356.65 46.01 359.98 50.2C363.8 54.99 368.88 56.32 370.54 56.73C372.71 57.26 375.45 57.94 377.59 56.46C378.38 55.91 379.62 54.69 380.2 51.18C381.57 42.81 376.89 35.03 374.66 31.42C371.42 26.19 368.11 26 367.49 21.96C366.82 17.67 369.25 14.31 369.55 13.92C372.09 10.57 376.26 9.30999 379.66 9.74999C381.61 9.99999 382.92 10.76 384.52 11.69C389.03 14.31 391.38 18.01 392.46 19.64C394.56 22.81 395.87 26.62 396.41 30.54C396.95 34.48 396.75 38.57 395.92 42.51C394.28 50.41 389.94 57.63 383.55 62.19C380.38 64.48 376.8 66.11 373.04 66.86C369.27 67.63 365.29 67.6 361.42 66.9C357.94 66.28 354.61 65.09 351.47 63.46C351.42 63.43 351.39 63.39 351.34 63.37C349.49 62.39 347.73 61.27 346.03 60.04C345.06 59.32 344.11 58.56 343.19 57.75C342.42 57.07 341.66 56.37 340.94 55.64C340.89 55.59 340.84 55.54 340.78 55.49C340.71 55.42 340.65 55.36 340.58 55.29C339.09 53.8 337.51 52.21 336.34 50.46C336.93 51.33 336.32 50.43 336.22 50.29C336.06 50.07 335.9 49.86 335.74 49.64C335.39 49.16 335.05 48.68 334.71 48.19C334.57 47.99 334.45 47.78 334.31 47.58C335.48 47.11 336.75 46.51 338.06 45.74C340.11 44.53 343.97 42.21 346.9 37.6C350.43 32.05 350.49 26.52 350.49 23.94C350.49 17.54 348.51 12.09 344.54 7.54999C340.58 3.00999 335.08 0.73999 328.1 0.73999C323.1 0.73999 318.68 1.93999 314.84 4.36999C311 6.80999 309.06 9.23999 309.06 11.72V63.3C309.06 65.57 310.38 66.69 313.02 66.69C316.03 66.69 317.52 65.53 317.52 63.22V50.46C319.54 50.49 321.87 50.4 324.43 50.06C324.84 50 325.24 49.94 325.64 49.88C328.04 53.73 330.81 57.39 333.96 60.68C334.21 60.96 334.47 61.23 334.74 61.51C335.66 62.43 336.61 63.31 337.59 64.17C337.68 64.25 337.78 64.33 337.87 64.41C338.18 64.68 338.5 64.95 338.82 65.21C341.37 67.31 344.1 69.17 347.04 70.73C347.29 70.86 347.54 70.97 347.81 71.05C351.64 72.96 355.76 74.31 360.01 74.99C364.84 75.77 369.86 75.7 374.71 74.58C379.58 73.48 384.14 71.22 388.03 68.24C391.92 65.26 395.19 61.51 397.64 57.32C400.09 53.14 401.74 48.56 402.62 43.88C403.5 39.2 403.67 34.38 402.96 29.62L402.95 29.6ZM317.61 43.3L317.4 13.53C317.4 11.96 318.72 10.72 321.36 9.80999C324 8.89999 326.36 8.44999 328.38 8.44999C332.43 8.44999 335.73 10.14 338.29 13.49C340.85 16.84 342.13 20.51 342.13 24.52C342.13 28.77 340.93 32.37 338.58 35.26C336.23 38.15 333.25 40.22 329.66 41.45C326.07 42.69 322.06 43.31 317.6 43.31L317.61 43.3Z" fill="#125548"/>
</svg>
