<?xml version="1.0" encoding="UTF-8"?>
<svg xmlns="http://www.w3.org/2000/svg" version="1.1" viewBox="0 0 31.9 32">
  <defs>
    <style>
      .cls-1 {
        fill: #125548;
      }
    </style>
  </defs>
  <!-- Generator: Adobe Illustrator 28.7.1, SVG Export Plug-In . SVG Version: 1.2.0 Build 142)  -->
  <g>
    <g id="Capa_1">
      <path class="cls-1" d="M28.8,4.6c1.5,1.9,2.4,4,2.8,6.2h0c.4,2.2.3,4.4-.2,6.5-.5,2.1-1.4,4.2-2.8,6.2-1.4,1.9-3.2,3.6-5.3,5-2.2,1.4-4.7,2.4-7.4,2.9-2.7.5-5.5.7-8.2.2-3.9-.7-5.7-4-7.2-6.2-.2,0-.4-.6-.5-.7h0c.9.6,1.9,1.1,3,1.5,0,0,0,0,0,0,1.7.7,3.6,1.3,5.5,1.6,2.2.3,4.4.3,6.5,0,2.1-.3,4.1-1.1,5.8-2.1,3.6-2.1,6-5.4,6.9-9,.5-1.8.6-3.7.3-5.5-.3-1.8-1-3.5-2.2-5-.6-.7-1.9-2.4-4.4-3.6-.9-.4-1.6-.8-2.7-.9-1.9-.2-4.2.4-5.6,1.9-.2.2-1.5,1.7-1.1,3.7.3,1.9,2.2,1.9,4,4.3,1.2,1.7,3.8,5.2,3.1,9.1-.3,1.6-1,2.2-1.5,2.4-1.2.7-2.7.4-3.9.1h0c-.9-.2-3.7-.8-5.9-3-1.9-1.9-2.1-3.9-2.3-5.7h0c-.1-1.2-.8-6.8,3.6-10.9.6-.6,2.3-2.1,5-3,1.8-.6,3.3-.7,3.7-.7.7,0,1.5,0,2.1,0,.8,0,1.7.1,2.7.4,1.2.3,2.5.9,3.6,1.7,1.1.7,2,1.6,2.7,2.4Z"/>
    </g>
  </g>
</svg>