<svg width="86" height="87" viewBox="0 0 86 87" fill="none" xmlns="http://www.w3.org/2000/svg">
<g clip-path="url(#clip0_68_218)">
<mask id="mask0_68_218" style="mask-type:luminance" maskUnits="userSpaceOnUse" x="0" y="0" width="86" height="87">
<path d="M86 0.5H0V86.5H86V0.5Z" fill="white"/>
</mask>
<g mask="url(#mask0_68_218)">
<path d="M38.0071 86.5C32.0257 86.5 27.158 81.6339 27.158 75.6509V66.3891C27.158 62.0454 25.6379 57.6429 24.0287 52.9818C22.2566 47.8504 20.4258 42.5442 20.4258 36.7661C20.4258 29.4292 23.6928 23.9182 29.874 20.8276C34.7921 18.3685 40.3519 18.0023 43.2292 18.0023C46.1065 18.0023 48.7 19.4065 50.2789 21.7615C51.8578 24.1164 52.1618 27.0861 51.0885 29.7097L45.9234 42.3376C45.2364 44.0173 44.7493 45.7793 44.4755 47.5732C44.3714 48.2602 43.7281 48.7339 43.0411 48.6281C42.3524 48.5239 41.8804 47.8806 41.9862 47.1936C42.2903 45.2032 42.8295 43.248 43.5937 41.3836L48.7587 28.7557C49.5247 26.8828 49.3181 24.8454 48.1893 23.1657C47.0606 21.486 45.2549 20.5219 43.2309 20.5219C40.577 20.5219 35.4573 20.8544 31.0028 23.0817C25.658 25.7541 22.947 30.3581 22.947 36.7661C22.947 42.1209 24.709 47.2238 26.4122 52.1588C28.0919 57.0248 29.6792 61.6204 29.6792 66.3874V75.6492C29.6792 80.2415 33.4165 83.9788 38.0087 83.9788C40.5484 83.9788 42.9168 82.8433 44.5058 80.8613C46.0948 78.8792 46.6911 76.3211 46.1401 73.8418L45.1424 69.3537C44.9912 68.6751 45.4195 68.0016 46.0981 67.8504C46.7784 67.6992 47.4503 68.1275 47.6014 68.8061L48.5992 73.2943C49.3164 76.5243 48.5404 79.8551 46.471 82.4368C44.4016 85.0168 41.316 86.4966 38.0087 86.4966L38.0071 86.5Z" fill="#125548"/>
<path d="M50.6351 16.4839C47.2858 16.4839 44.6621 12.9734 44.6621 8.49195C44.6621 4.01055 47.2858 0.5 50.6351 0.5C53.9844 0.5 56.608 4.01055 56.608 8.49195C56.608 12.9734 53.9844 16.4839 50.6351 16.4839ZM50.6351 3.01953C48.7639 3.01953 47.1816 5.52562 47.1816 8.49195C47.1816 11.4583 48.7622 13.9644 50.6351 13.9644C52.5079 13.9644 54.0885 11.4583 54.0885 8.49195C54.0885 5.52562 52.5079 3.01953 50.6351 3.01953Z" fill="#125548"/>
<path d="M38.2763 15.1385C35.6828 15.1385 33.6504 12.5148 33.6504 9.16553C33.6504 5.81624 35.6828 3.19257 38.2763 3.19257C40.8697 3.19257 42.9021 5.81624 42.9021 9.16553C42.9021 12.5148 40.8697 15.1385 38.2763 15.1385ZM38.2763 5.7121C37.2802 5.7121 36.1699 7.12975 36.1699 9.16553C36.1699 11.2013 37.2802 12.619 38.2763 12.619C39.2723 12.619 40.3826 11.2013 40.3826 9.16553C40.3826 7.12975 39.2723 5.7121 38.2763 5.7121Z" fill="#125548"/>
<path d="M28.1828 17.8243C26.0025 17.8243 24.2305 15.7499 24.2305 13.1984C24.2305 10.647 26.0042 8.57257 28.1828 8.57257C30.3613 8.57257 32.1351 10.647 32.1351 13.1984C32.1351 15.7499 30.3613 17.8243 28.1828 17.8243ZM28.1828 11.0921C27.4068 11.0921 26.75 12.0562 26.75 13.1984C26.75 14.3406 27.4068 15.3048 28.1828 15.3048C28.9588 15.3048 29.6155 14.3406 29.6155 13.1984C29.6155 12.0562 28.9588 11.0921 28.1828 11.0921Z" fill="#125548"/>
<path d="M20.339 24.5632C18.1588 24.5632 16.3867 22.4888 16.3867 19.9373C16.3867 17.3859 18.1605 15.3115 20.339 15.3115C22.5176 15.3115 24.2913 17.3859 24.2913 19.9373C24.2913 22.4888 22.5176 24.5632 20.339 24.5632ZM20.339 17.831C19.563 17.831 18.9062 18.7951 18.9062 19.9373C18.9062 21.0795 19.563 22.0436 20.339 22.0436C21.115 22.0436 21.7718 21.0795 21.7718 19.9373C21.7718 18.7951 21.115 17.831 20.339 17.831Z" fill="#125548"/>
<path d="M41.167 66.2178C37.1543 66.2178 33.8906 62.9541 33.8906 58.9414C33.8906 54.9286 37.1543 51.665 41.167 51.665C42.6216 51.6599 44.0292 52.0933 45.2369 52.9079C45.8131 53.2976 45.9642 54.0804 45.5745 54.6565C45.1848 55.2326 44.4021 55.3838 43.826 54.9941C43.0416 54.4633 42.1261 54.1828 41.1771 54.1828H41.1687C38.5434 54.1828 36.4102 56.316 36.4102 58.9397C36.4102 61.5634 38.5434 63.6966 41.167 63.6966C42.1496 63.6966 42.9794 63.4026 43.6311 62.8214C43.7588 62.7072 43.8814 62.5813 43.9923 62.4502C44.4391 61.9161 45.2336 61.8472 45.7677 62.294C46.3018 62.7408 46.3707 63.5353 45.9239 64.0695C45.7358 64.2945 45.5275 64.5078 45.3075 64.7044C44.1955 65.6954 42.7644 66.2195 41.167 66.2195V66.2178Z" fill="#125548"/>
<path d="M66.072 69.1404C64.6813 69.1404 64.5687 69.1035 64.4008 69.0464C63.9993 68.912 63.6869 68.5945 63.5643 68.1964C63.3593 67.5279 63.6869 67.0979 64.1421 66.5016C64.4948 66.0397 65.1499 65.1814 66.2484 63.6109C66.586 63.1288 66.7254 62.7946 66.7825 62.5863L66.7943 62.4922C66.7658 62.2285 66.5424 62.0236 66.2719 62.0236C66.0216 62.0236 65.805 62.2016 65.7563 62.4452C65.6219 63.1271 64.9601 63.5723 64.2765 63.4379C63.5928 63.3035 63.1494 62.6417 63.2838 61.9581C63.5643 60.5354 64.8207 59.5024 66.2719 59.5024C67.9516 59.5024 69.3172 60.868 69.3172 62.5477C69.3172 62.6014 69.3138 62.6535 69.3071 62.7072L69.2718 62.9777C69.2668 63.0196 69.2584 63.0616 69.25 63.102C69.1072 63.7201 68.7999 64.3584 68.3127 65.0538C67.8777 65.6736 67.5115 66.1875 67.2025 66.6108C67.5754 66.6075 67.9634 66.6041 68.3363 66.5991C68.3413 66.5991 68.3463 66.5991 68.3531 66.5991C69.0417 66.5991 69.6044 67.1534 69.6128 67.8437C69.6212 68.5391 69.0652 69.1102 68.3682 69.1186C67.3536 69.132 66.6146 69.1371 66.072 69.1371V69.1404Z" fill="#125548"/>
<path d="M54.5123 66.2716C50.4861 66.2716 47.209 62.9962 47.209 58.9683C47.209 54.9404 50.4844 51.665 54.5123 51.665C58.5402 51.665 61.8155 54.9404 61.8155 58.9683C61.8155 62.9962 58.5402 66.2716 54.5123 66.2716ZM54.5123 54.1845C51.8752 54.1845 49.7285 56.3312 49.7285 58.9683C49.7285 61.6054 51.8752 63.752 54.5123 63.752C57.1494 63.752 59.296 61.6054 59.296 58.9683C59.296 56.3312 57.1494 54.1845 54.5123 54.1845Z" fill="#125548"/>
</g>
</g>
<defs>
<clipPath id="clip0_68_218">
<rect width="86" height="86" fill="white" transform="translate(0 0.5)"/>
</clipPath>
</defs>
</svg>
