<svg width="197" height="31" viewBox="0 0 197 31" fill="none" xmlns="http://www.w3.org/2000/svg">
<path d="M8.92912 27.4988C5.8324 27.4988 3.56202 26.2914 2.13801 23.8887C0.714004 21.4859 0 17.976 0 13.3711C0 9.29559 0.645812 6.14673 1.93745 3.92849C3.22908 1.71025 5.36709 0.599121 8.36352 0.599121C10.8987 0.599121 12.8201 1.39336 14.1277 2.98584C15.4354 4.57832 16.0973 6.81261 16.0973 9.71277C16.0973 10.5591 15.997 11.1047 15.7844 11.3694C15.5718 11.6342 15.0544 11.7665 14.2441 11.7665C13.6143 11.7665 13.2172 11.6502 13.0367 11.4336C12.8562 11.217 12.7559 10.8199 12.7398 10.2583C12.7238 9.37983 12.6556 8.60164 12.5393 7.92373C12.4229 7.24582 12.2264 6.54786 11.9416 5.85391C11.6568 5.15995 11.2276 4.61041 10.65 4.22934C10.0723 3.84826 9.34228 3.6477 8.47985 3.6477C5.15049 3.6477 3.49383 6.86074 3.49383 13.2868C3.49383 17.1457 3.92304 19.9616 4.78546 21.7346C5.64789 23.5076 7.07189 24.3861 9.07753 24.3861C10.1205 24.3861 10.9508 24.0892 11.5605 23.4915C12.1702 22.8939 12.4711 22.0354 12.4711 20.8922H9.58697C8.89302 20.8922 8.54404 20.4109 8.54404 19.4361C8.54404 18.3771 8.94115 17.8477 9.73539 17.8477H14.4406C15.3833 17.8477 15.8646 18.7582 15.8646 20.5994C15.8646 22.8337 15.2188 24.5425 13.9272 25.7018C12.6355 26.861 10.9949 27.4427 9.00935 27.4427L8.92511 27.5108L8.92912 27.4988Z" fill="#CFF57F"/>
<path d="M35 25.0159C35.0681 25.1643 35.1002 25.3287 35.1002 25.5133C35.1002 25.9425 34.8836 26.3075 34.4384 26.6083C33.9931 26.9092 33.4957 27.0536 32.9462 27.0536C32.5972 27.0536 32.3645 26.9854 32.2322 26.853C32.0998 26.7207 31.9674 26.472 31.819 26.123L29.4844 19.8774C27.9922 20.3066 26.2714 20.5232 24.2978 20.5232V25.6416C24.2978 26.5682 23.7002 27.0335 22.4928 27.0335C21.4338 27.0335 20.9043 26.5883 20.9043 25.6737V4.9835C20.9043 3.9887 21.6825 3.01395 23.2228 2.0352C24.7632 1.05644 26.5361 0.579102 28.5418 0.579102C31.3417 0.579102 33.5439 1.48966 35.1363 3.31079C36.7288 5.13191 37.5231 7.31806 37.5231 9.88529C37.5231 13.8444 35.8664 16.7606 32.537 18.6299L35.004 25.0078L35 25.0159ZM24.3299 17.6592C26.119 17.6592 27.7275 17.4105 29.1675 16.9131C30.6076 16.4157 31.803 15.5893 32.7456 14.4301C33.6883 13.2708 34.1696 11.8308 34.1696 10.122C34.1696 8.51343 33.6562 7.04129 32.6293 5.6975C31.6024 4.35372 30.2787 3.67582 28.6541 3.67582C27.8438 3.67582 26.8972 3.85632 25.8382 4.22135C24.7792 4.58638 24.2497 5.08378 24.2497 5.71355L24.3339 17.6552L24.3299 17.6592Z" fill="#CFF57F"/>
<path d="M43.8482 27.0375C42.7893 27.0375 42.2598 26.524 42.2598 25.4811V2.85343C42.2598 2.12337 42.3921 1.62597 42.6569 1.36123C42.9216 1.09648 43.3709 0.964111 43.9806 0.964111H53.5556C54.434 0.964111 54.8793 1.46151 54.8793 2.45631C54.8793 3.49925 54.4661 4.01269 53.6518 4.01269H45.6493V17.5307H53.0381C53.6679 17.5307 53.9807 18.0442 53.9807 19.055C53.9807 20.0659 53.6839 20.5793 53.0702 20.5793H45.6493V23.9769H53.9166C54.5945 23.9769 54.9435 24.4903 54.9595 25.5332C54.9595 26.528 54.5945 27.0254 53.8644 27.0254L43.8442 27.0415L43.8482 27.0375Z" fill="#CFF57F"/>
<path d="M61.2096 27.0375C60.1506 27.0375 59.6211 26.524 59.6211 25.4811V2.85343C59.6211 2.12337 59.7535 1.62597 60.0182 1.36123C60.283 1.09648 60.7322 0.964111 61.3419 0.964111H70.9169C71.7954 0.964111 72.2406 1.46151 72.2406 2.45631C72.2406 3.49925 71.8275 4.01269 71.0132 4.01269H63.0106V17.5307H70.3994C71.0292 17.5307 71.3421 18.0442 71.3421 19.055C71.3421 20.0659 71.0452 20.5793 70.4315 20.5793H63.0106V23.9769H71.2779C71.9558 23.9769 72.3048 24.4903 72.3208 25.5332C72.3208 26.528 71.9558 27.0254 71.2258 27.0254L61.2056 27.0415L61.2096 27.0375Z" fill="#CFF57F"/>
<path d="M92.09 27.2503C91.5765 27.2503 91.1272 27.1339 90.7662 26.9173C90.4052 26.7007 90.2207 26.3718 90.2207 25.9225L90.1886 20.0259L80.5134 7.0735L81.1271 25.5936C81.1431 26.2073 80.9947 26.6365 80.6618 26.8852C80.3288 27.1339 79.8997 27.2503 79.3541 27.2503C78.3112 27.2503 77.7656 26.805 77.7135 25.8904L76.9674 2.89775C76.9674 2.74933 76.9674 2.56481 76.9513 2.36826C76.9353 2.1717 76.9674 1.98718 77.0356 1.80667C77.1038 1.62617 77.2 1.45769 77.3164 1.29323C77.4327 1.12877 77.6132 0.996395 77.8619 0.912158C78.1106 0.827921 78.4074 0.779785 78.7404 0.779785C79.2859 0.779785 79.7191 0.896112 80.032 1.14481C80.3449 1.39351 80.7781 1.89091 81.3397 2.63701L90.5336 15.2605V2.75334C90.5336 2.30809 90.5656 1.9591 90.6178 1.7104C90.6699 1.4617 90.8344 1.24509 91.0992 1.06459C91.3639 0.884079 91.745 0.783797 92.2424 0.783797C92.8882 0.783797 93.3375 0.932214 93.5821 1.24911C93.8268 1.566 93.9632 2.11153 93.9632 2.90577V25.6337C93.9632 26.6927 93.3495 27.2222 92.126 27.2222L92.0939 27.2543L92.09 27.2503Z" fill="#CFF57F"/>
<path d="M111.841 27.4988C108.745 27.4988 106.474 26.2914 105.05 23.8887C103.626 21.4859 102.912 17.976 102.912 13.3711C102.912 9.29559 103.558 6.14673 104.85 3.92849C106.141 1.71025 108.279 0.599121 111.276 0.599121C113.811 0.599121 115.732 1.39336 117.04 2.98584C118.348 4.57832 119.009 6.81261 119.009 9.71277C119.009 10.5591 118.909 11.1047 118.697 11.3694C118.484 11.6342 117.966 11.7665 117.156 11.7665C116.526 11.7665 116.129 11.6502 115.949 11.4336C115.768 11.217 115.668 10.8199 115.652 10.2583C115.636 9.37983 115.568 8.60164 115.451 7.92373C115.335 7.24582 115.139 6.54786 114.854 5.85391C114.569 5.15995 114.14 4.61041 113.562 4.22934C112.984 3.84826 112.254 3.6477 111.392 3.6477C108.063 3.6477 106.406 6.86074 106.406 13.2868C106.406 17.1457 106.835 19.9616 107.698 21.7346C108.56 23.5076 109.984 24.3861 111.99 24.3861C113.033 24.3861 113.863 24.0892 114.473 23.4915C115.082 22.8939 115.383 22.0354 115.383 20.8922H112.499C111.805 20.8922 111.456 20.4109 111.456 19.4361C111.456 18.3771 111.853 17.8477 112.648 17.8477H117.353C118.295 17.8477 118.777 18.7582 118.777 20.5994C118.777 22.8337 118.131 24.5425 116.839 25.7018C115.548 26.861 113.907 27.4427 111.921 27.4427L111.837 27.5108L111.841 27.4988Z" fill="#CFF57F"/>
<path d="M170.132 27.4509C169.402 27.4509 168.792 27.3025 168.295 27.0217C167.797 26.7409 167.485 26.3599 167.368 25.8785L161.769 2.75345C161.62 2.07554 161.817 1.57814 162.366 1.2452C162.916 0.912265 163.477 0.747803 164.071 0.747803C164.865 0.747803 165.331 1.04464 165.463 1.65837L170.2 22.8941L176.081 1.85492C176.261 1.2091 176.759 0.876164 177.573 0.876164C178.187 0.876164 178.732 1.04063 179.214 1.38961C179.695 1.73859 179.843 2.21593 179.659 2.82966L172.8 25.8224C172.619 26.3839 172.334 26.8011 171.937 27.0498C171.54 27.2985 170.942 27.4309 170.148 27.4309L170.132 27.4469V27.4509Z" fill="#CFF57F"/>
<path d="M185.702 27.0375C184.643 27.0375 184.113 26.524 184.113 25.4811V2.85343C184.113 2.12337 184.246 1.62597 184.51 1.36123C184.775 1.09648 185.224 0.964111 185.834 0.964111H195.409C196.288 0.964111 196.733 1.46151 196.733 2.45631C196.733 3.49925 196.32 4.01269 195.505 4.01269H187.503V17.5307H194.892C195.521 17.5307 195.834 18.0442 195.834 19.055C195.834 20.0659 195.537 20.5793 194.924 20.5793H187.503V23.9769H195.77C196.448 23.9769 196.797 24.4903 196.813 25.5332C196.813 26.528 196.448 27.0254 195.718 27.0254L185.698 27.0415L185.702 27.0375Z" fill="#CFF57F"/>
<path d="M161.482 12.1637C161.197 10.2584 160.552 8.37307 159.453 6.71641C158.995 6.01844 158.329 5.24827 157.523 4.61048C156.725 3.96065 155.79 3.45122 154.9 3.15037C154.17 2.89766 153.48 2.78534 152.93 2.77732C152.445 2.72116 151.899 2.6971 151.382 2.72517C151.149 2.73721 150.014 2.81743 148.742 3.31884C146.793 4.08901 145.59 5.43279 145.152 5.93019C141.967 9.56442 142.469 14.4462 142.573 15.4811C142.726 16.9773 142.91 18.7463 144.246 20.427C145.778 22.3484 147.816 22.8819 148.482 23.0464C149.352 23.259 150.451 23.5317 151.31 22.9381C151.627 22.7174 152.124 22.2281 152.357 20.8201C152.906 17.4626 151.029 14.3419 150.134 12.8938C148.835 10.7959 147.507 10.7197 147.258 9.09911C146.99 7.37827 147.964 6.03047 148.085 5.87403C149.103 4.53025 150.776 4.02483 152.14 4.20133C152.922 4.30161 153.448 4.60647 154.089 4.97952C155.899 6.03047 156.841 7.51465 157.274 8.16849C158.117 9.44007 158.642 10.9684 158.859 12.5408C159.076 14.1212 158.995 15.7619 158.662 17.3423C158.004 20.5112 156.264 23.4074 153.7 25.2365C152.429 26.1551 150.993 26.8089 149.485 27.1098C147.972 27.4187 146.376 27.4066 144.823 27.1258C143.427 26.8771 142.092 26.3998 140.832 25.746C140.812 25.7339 140.8 25.7179 140.78 25.7099C140.038 25.3167 139.332 24.8675 138.65 24.3741C138.261 24.0853 137.88 23.7804 137.511 23.4555C137.202 23.1827 136.897 22.902 136.608 22.6091C136.588 22.5891 136.568 22.569 136.544 22.549C136.516 22.5209 136.492 22.4968 136.464 22.4687C135.866 21.871 135.232 21.2333 134.763 20.5313C135 20.8803 134.755 20.5192 134.715 20.4631C134.651 20.3748 134.587 20.2906 134.522 20.2024C134.382 20.0098 134.246 19.8173 134.109 19.6207C134.053 19.5405 134.005 19.4563 133.949 19.376C134.418 19.1875 134.928 18.9468 135.453 18.638C136.275 18.1526 137.824 17.222 138.999 15.3728C140.415 13.1465 140.439 10.9283 140.439 9.89334C140.439 7.32612 139.645 5.13997 138.052 3.31884C136.464 1.49772 134.258 0.587158 131.458 0.587158C129.452 0.587158 127.679 1.06851 126.139 2.04326C124.599 3.02201 123.82 3.99675 123.82 4.99155V25.6818C123.82 26.5923 124.35 27.0416 125.409 27.0416C126.616 27.0416 127.214 26.5763 127.214 25.6497V20.5313C128.024 20.5433 128.959 20.5072 129.986 20.3708C130.15 20.3468 130.311 20.3227 130.471 20.2986C131.434 21.843 132.545 23.3111 133.808 24.6308C133.909 24.7431 134.013 24.8514 134.121 24.9638C134.49 25.3328 134.871 25.6858 135.265 26.0308C135.301 26.0628 135.341 26.0949 135.377 26.127C135.501 26.2353 135.63 26.3436 135.758 26.4479C136.781 27.2903 137.876 28.0364 139.055 28.6622C139.155 28.7143 139.256 28.7584 139.364 28.7905C140.9 29.5567 142.553 30.0982 144.258 30.371C146.195 30.6838 148.209 30.6558 150.154 30.2065C152.108 29.7653 153.937 28.8587 155.497 27.6633C157.058 26.468 158.37 24.9638 159.352 23.283C160.335 21.6063 160.997 19.7691 161.35 17.8919C161.703 16.0146 161.771 14.0811 161.486 12.1718L161.482 12.1637ZM127.25 17.6592L127.166 5.71759C127.166 5.08782 127.695 4.59042 128.754 4.2254C129.813 3.86037 130.76 3.67986 131.57 3.67986C133.195 3.67986 134.518 4.35777 135.545 5.70155C136.572 7.04533 137.086 8.51747 137.086 10.126C137.086 11.8308 136.604 13.2749 135.662 14.4341C134.719 15.5934 133.524 16.4237 132.084 16.9171C130.644 17.4145 129.035 17.6632 127.246 17.6632L127.25 17.6592Z" fill="#CFF57F"/>
</svg>
