<svg width="171" height="150" viewBox="0 0 171 150" fill="none" xmlns="http://www.w3.org/2000/svg">
<rect x="0.25" width="170.25" height="150" rx="75" fill="white"/>
<g clip-path="url(#clip0_68_3871)">
<path d="M86.9512 33.2241L95.1128 58.3751C116.1 58.7082 132.756 65.0376 132.756 72.866C132.756 80.6945 116.433 86.8573 95.779 87.357L86.9512 116.339L68.1296 122.668L79.4559 86.5242C69.129 85.1917 60.8009 82.1935 56.6368 78.3626L48.1421 87.357H36.9824L48.1421 72.6994L36.9824 58.042H48.1421L56.6368 67.0363C60.8009 63.372 68.7959 60.5404 78.7896 59.0413L68.2962 26.5616L86.9512 33.2241Z" fill="#CFF57F"/>
<path d="M68.1281 124.833C67.6284 124.833 67.1287 124.667 66.6291 124.167C66.1294 123.667 65.7962 122.835 66.1294 122.002L76.6228 88.1897C68.1281 86.8572 61.1325 84.3588 56.8019 81.1941L49.4731 89.0225C49.14 89.3557 48.4737 89.6888 47.974 89.6888H36.8144C35.9815 89.6888 35.3153 89.1891 34.9822 88.5228C34.649 87.8566 34.649 87.0238 35.1487 86.3575L45.309 73.0325L35.1487 59.7075C34.649 59.0412 34.649 58.2084 34.9822 57.5422C35.3153 56.8759 35.9815 56.3762 36.8144 56.3762H47.974C48.4737 56.3762 49.14 56.5428 49.4731 57.0425L56.8019 64.7044C61.1325 61.7062 67.795 59.2078 75.9566 57.8753L66.1294 27.7275C65.9628 27.0612 66.1294 26.2284 66.6291 25.5622C67.1287 25.0625 67.9616 24.8959 68.7944 25.0625L87.6159 31.3919C88.2822 31.5584 88.7819 32.0581 88.9484 32.7243L96.6103 56.5428C106.438 56.8759 115.598 58.375 122.594 61.2066C130.589 64.3712 134.92 68.5353 134.92 73.1991C134.92 77.8628 130.756 82.0269 122.927 85.1916C116.098 87.8566 107.104 89.5222 97.4431 89.8553L89.115 117.338C88.9484 118.004 88.4488 118.504 87.7825 118.671L68.9609 125C68.6278 124.833 68.2947 124.833 68.1281 124.833ZM56.6353 76.5303C57.135 76.5303 57.6347 76.6969 57.9678 77.03C61.7987 80.5278 69.7937 83.1928 79.6209 84.6919C80.2872 84.6919 80.7869 85.1916 81.12 85.6913C81.4531 86.191 81.4531 86.8572 81.2866 87.3569L71.2928 119.503L85.1175 114.84L93.6122 86.8572C93.9453 86.0244 94.6116 85.3581 95.6109 85.3581C105.438 85.1916 114.433 83.5259 121.095 80.8609C126.925 78.529 130.589 75.5309 130.589 72.8659C130.589 70.0344 126.925 67.0363 120.928 64.7044C114.099 62.0394 104.772 60.5403 94.9447 60.3737C94.1119 60.3737 93.2791 59.7075 92.9459 58.8747L85.1175 34.7231L71.2928 30.0593L80.6203 58.7081C80.7869 59.3744 80.7869 59.8741 80.4538 60.3737C80.1206 60.8734 79.6209 61.2066 78.9547 61.3731C69.4606 62.7056 61.7987 65.5372 57.9678 68.8684C57.135 69.5347 55.8025 69.5347 55.1362 68.7019L47.1412 60.3737H41.145L49.6397 71.5335C50.1394 72.1997 50.1394 73.3656 49.6397 74.0319L41.145 85.1916H47.1412L55.1362 76.8634C55.4694 76.6969 55.9691 76.5303 56.6353 76.5303Z" fill="#125548"/>
<path d="M61.9641 37.3881H49.472C48.306 37.3881 47.3066 36.3887 47.3066 35.2228C47.3066 34.0569 48.306 33.0575 49.472 33.0575H61.9641C63.1301 33.0575 64.1295 34.0569 64.1295 35.2228C63.9629 36.3887 62.9635 37.3881 61.9641 37.3881Z" fill="#125548"/>
<path d="M61.9641 45.7164H53.636C52.4701 45.7164 51.4707 44.717 51.4707 43.551C51.4707 42.3851 52.4701 41.3857 53.636 41.3857H61.9641C63.1301 41.3857 64.1295 42.3851 64.1295 43.551C63.9629 44.717 62.9635 45.7164 61.9641 45.7164Z" fill="#125548"/>
<path d="M61.9673 54.0444H55.638C54.472 54.0444 53.4727 53.045 53.4727 51.879C53.4727 50.7131 54.472 49.7137 55.638 49.7137H61.9673C63.1333 49.7137 64.1327 50.7131 64.1327 51.879C64.1327 53.045 62.9667 54.0444 61.9673 54.0444Z" fill="#125548"/>
<path d="M61.9641 112.341H49.472C48.306 112.341 47.3066 111.342 47.3066 110.176C47.3066 109.01 48.306 108.011 49.472 108.011H61.9641C63.1301 108.011 64.1295 109.01 64.1295 110.176C63.9629 111.342 62.9635 112.341 61.9641 112.341Z" fill="#125548"/>
<path d="M61.9641 104.013H53.636C52.4701 104.013 51.4707 103.014 51.4707 101.848C51.4707 100.682 52.4701 99.6826 53.636 99.6826H61.9641C63.1301 99.6826 64.1295 100.682 64.1295 101.848C63.9629 103.014 62.9635 104.013 61.9641 104.013Z" fill="#125548"/>
<path d="M61.9673 95.6851H55.638C54.472 95.6851 53.4727 94.6857 53.4727 93.5198C53.4727 92.3538 54.472 91.3545 55.638 91.3545H61.9673C63.1333 91.3545 64.1327 92.3538 64.1327 93.5198C64.1327 94.6857 62.9667 95.6851 61.9673 95.6851Z" fill="#125548"/>
<path d="M91.1158 52.0457H84.7864C83.6205 52.0457 82.6211 51.0464 82.6211 49.8804C82.6211 48.7145 83.6205 47.7151 84.7864 47.7151H91.1158C92.2817 47.7151 93.2811 48.7145 93.2811 49.8804C93.2811 51.0464 92.1152 52.0457 91.1158 52.0457Z" fill="#125548"/>
<path d="M91.1158 104.013H84.7864C83.6205 104.013 82.6211 103.014 82.6211 101.848C82.6211 100.682 83.6205 99.6826 84.7864 99.6826H91.1158C92.2817 99.6826 93.2811 100.682 93.2811 101.848C93.1145 103.014 92.1152 104.013 91.1158 104.013Z" fill="#125548"/>
</g>
<defs>
<clipPath id="clip0_68_3871">
<rect width="102" height="102" fill="white" transform="translate(34.25 24)"/>
</clipPath>
</defs>
</svg>
