<svg width="171" height="150" viewBox="0 0 171 150" fill="none" xmlns="http://www.w3.org/2000/svg">
<rect x="0.5" width="170.25" height="150" rx="75" fill="white"/>
<path d="M98.4344 58.2211V70.7055H77.627L85.9499 58.2211H98.4344Z" fill="white"/>
<path d="M85.9501 58.2212L77.6271 70.7056H73.4656H52.6582L58.9837 49.8982H73.4656V58.2212H85.9501Z" fill="white"/>
<path d="M106.759 70.7056H133.892L128.399 81.5254C122.739 92.6782 111.42 99.836 98.769 99.836H57.487C53.3255 99.836 49.497 97.3391 47.9988 93.5105L38.1777 70.7056H106.759ZM88.1156 85.354C88.1156 84.1888 87.1168 83.19 85.9516 83.19C84.7864 83.19 83.7876 84.1888 83.7876 85.354C83.7876 86.5192 84.7864 87.518 85.9516 87.518C87.1168 87.3515 88.1156 86.3527 88.1156 85.354ZM73.4671 85.354C73.4671 84.1888 72.4684 83.19 71.3032 83.19C70.1379 83.19 69.1392 84.1888 69.1392 85.354C69.1392 86.5192 70.1379 87.518 71.3032 87.518C72.4684 87.3515 73.4671 86.3527 73.4671 85.354ZM58.9852 85.354C58.9852 84.1888 57.9864 83.19 56.8212 83.19C55.656 83.19 54.6572 84.1888 54.6572 85.354C54.6572 86.5192 55.656 87.3515 56.8212 87.3515C57.9864 87.3515 58.9852 86.3527 58.9852 85.354Z" fill="#CFF57F"/>
<path d="M106.76 87.3514C105.594 87.3514 104.596 86.3527 104.596 85.1874V70.7055C104.596 69.5403 105.594 68.5415 106.76 68.5415C107.925 68.5415 108.924 69.5403 108.924 70.7055V85.3539C108.924 86.3527 107.925 87.3514 106.76 87.3514Z" fill="#125548"/>
<path d="M102.599 91.513C99.1032 91.513 96.2734 88.6832 96.2734 85.1875C96.2734 84.0223 97.2722 83.0236 98.4374 83.0236C99.6026 83.0236 100.601 84.0223 100.601 85.1875C100.601 86.3527 101.6 87.3515 102.765 87.3515C103.931 87.3515 104.929 86.3527 104.929 85.1875C104.929 84.0223 105.928 83.0236 107.093 83.0236C108.259 83.0236 109.257 84.0223 109.257 85.1875C108.924 88.6832 106.095 91.513 102.599 91.513Z" fill="#125548"/>
<path d="M110.921 91.513C107.426 91.513 104.596 88.6832 104.596 85.1875C104.596 84.0223 105.594 83.0236 106.76 83.0236C107.925 83.0236 108.924 84.0223 108.924 85.1875C108.924 86.3527 109.922 87.3515 111.088 87.3515C112.253 87.3515 113.252 86.3527 113.252 85.1875C113.252 84.0223 114.25 83.0236 115.416 83.0236C116.581 83.0236 117.58 84.0223 117.58 85.1875C117.247 88.6832 114.417 91.513 110.921 91.513Z" fill="#125548"/>
<path d="M56.8197 89.5155C54.4893 89.5155 52.6582 87.6844 52.6582 85.354C52.6582 83.0236 54.4893 81.1925 56.8197 81.1925C59.1501 81.1925 60.9812 83.0236 60.9812 85.354C60.9812 87.6844 59.1501 89.5155 56.8197 89.5155Z" fill="#125548"/>
<path d="M71.4701 89.5155C69.1396 89.5155 67.3086 87.6844 67.3086 85.354C67.3086 83.0236 69.1396 81.1925 71.4701 81.1925C73.8005 81.1925 75.6316 83.0236 75.6316 85.354C75.6316 87.6844 73.6341 89.5155 71.4701 89.5155Z" fill="#125548"/>
<path d="M85.9505 89.5155C83.6201 89.5155 81.7891 87.6844 81.7891 85.354C81.7891 83.0236 83.6201 81.1925 85.9505 81.1925C88.281 81.1925 90.112 83.0236 90.112 85.354C90.112 87.6844 88.281 89.5155 85.9505 89.5155Z" fill="#125548"/>
<path d="M98.7702 102H57.4883C52.4945 102 48.0001 99.0036 46.0026 94.5092L36.1815 71.7043C35.8486 71.0384 36.015 70.3726 36.3479 69.7068C36.6808 69.0409 37.3467 68.708 38.0125 68.708H52.661C53.8262 68.708 54.8249 69.7068 54.8249 70.872C54.8249 72.0372 53.8262 73.036 52.661 73.036H41.1753L49.6647 93.0111C50.9964 96.0074 53.9926 98.0049 57.3218 98.0049H98.7702C110.589 98.0049 121.242 91.513 126.569 80.8595L130.564 73.036H98.4373C97.2721 73.036 96.2733 72.0372 96.2733 70.872C96.2733 69.7068 97.2721 68.708 98.4373 68.708H133.893C134.559 68.708 135.225 69.0409 135.724 69.7068C136.057 70.3726 136.057 71.0384 135.891 71.7043L130.397 82.5241C127.401 88.3502 123.073 93.344 117.414 96.6732C111.754 100.169 105.262 102 98.7702 102Z" fill="#125548"/>
<path d="M98.4368 72.8695H52.6605C51.9946 72.8695 51.3288 72.5366 50.9959 72.0373C50.663 71.5379 50.4965 70.872 50.663 70.2062L56.9884 49.3988C57.3213 48.5665 57.9872 47.9006 58.9859 47.9006H73.4679C74.6331 47.9006 75.6319 48.8994 75.6319 50.0646V56.3901H98.4368C99.602 56.3901 100.601 57.3888 100.601 58.554V70.7056C100.601 71.8708 99.602 72.8695 98.4368 72.8695ZM55.4903 68.7081H96.4393V60.3851H73.4679C72.3027 60.3851 71.3039 59.3863 71.3039 58.2211V51.8957H60.3176L55.4903 68.7081Z" fill="#125548"/>
<path d="M77.6286 72.8695C77.2956 72.8695 76.7963 72.7031 76.4633 72.5366C75.4646 71.8708 75.2981 70.5391 75.964 69.7068L84.2869 57.2224C84.9528 56.2236 86.2844 56.0571 87.1167 56.723C88.1155 57.3888 88.282 58.7205 87.6161 59.5528L79.2931 72.0372C78.9602 72.5366 78.2944 72.8695 77.6286 72.8695Z" fill="#125548"/>
</svg>
