<svg width="171" height="150" viewBox="0 0 171 150" fill="none" xmlns="http://www.w3.org/2000/svg">
<rect width="170.25" height="150" rx="75" fill="white"/>
<path d="M108.414 48.3372H62.4573C60.0954 48.3372 58.0762 50.2062 58.0762 52.4288V99.7768C58.0762 101.999 60.0774 103.868 62.4573 103.868H108.594C110.956 103.868 112.975 101.999 112.975 99.7768V52.4288C112.795 50.2062 110.794 48.3372 108.414 48.3372Z" fill="#CFF57F"/>
<path d="M100.224 88.8828C102.045 88.8828 103.686 90.2467 103.686 92.1157C103.686 92.9744 103.325 93.8163 102.586 94.3215C102.045 94.8266 101.126 95.1802 100.224 95.1802H97.8444C96.0235 95.1802 94.3828 93.8163 94.3828 91.9473C94.3828 91.0886 94.7434 90.2467 95.3023 89.7247C95.8432 89.2196 96.7627 88.6976 97.6822 88.6976L100.242 88.866L100.224 88.8828Z" fill="#CFF57F"/>
<path d="M72.8532 88.883C74.6741 88.883 76.3148 90.2468 76.3148 92.1158C76.3148 92.9746 75.9542 93.8165 75.215 94.3216C74.6741 94.8267 73.7546 95.1803 72.8532 95.1803H70.4733C68.6524 95.1803 67.0117 93.8165 67.0117 91.9475C67.0117 91.0887 67.3723 90.2468 67.9312 89.7249C68.4721 89.2197 69.3916 88.6978 70.3111 88.6978L72.8712 88.8661L72.8532 88.883Z" fill="#CFF57F"/>
<path d="M85.4385 80.3628H67.2109V56.8572H103.684V80.3628H85.4385Z" fill="white"/>
<path d="M85.436 82.4003C84.156 82.4003 83.0742 81.3732 83.0742 80.1946V65.3773C83.0742 64.1818 84.174 63.1547 85.436 63.1547C86.6981 63.1547 87.8159 64.1818 87.8159 65.3773V80.363C87.8159 81.3901 86.7161 82.4003 85.436 82.4003Z" fill="#125548"/>
<path d="M108.427 105.906H62.4708C58.8289 105.906 55.9082 103.178 55.9082 99.7768V52.4288C55.9082 49.0275 58.8289 46.2998 62.4708 46.2998H108.608C112.249 46.2998 115.17 49.0275 115.17 52.4288V99.7768C115.17 103.01 112.069 105.906 108.427 105.906ZM62.4708 50.5429C61.3711 50.5429 60.4696 51.4017 60.4696 52.4119V99.76C60.4696 100.787 61.3891 101.629 62.4708 101.629H108.608C109.707 101.629 110.609 100.77 110.609 99.76V52.4119C110.609 51.3848 109.689 50.5429 108.608 50.5429H62.4708Z" fill="#125548"/>
<path d="M103.675 82.4003H67.2021C65.922 82.4003 64.8223 81.3731 64.8223 80.1945V56.8572C64.8223 55.6618 65.922 54.6346 67.2021 54.6346H103.675C104.955 54.6346 106.055 55.6618 106.055 56.8572V80.3629C106.055 81.39 104.955 82.4003 103.675 82.4003ZM69.5639 78.1403H101.476V59.063H69.5639V78.1403Z" fill="#125548"/>
<path d="M72.8496 97.3859H70.4698C67.3687 97.3859 64.8086 94.995 64.8086 92.0989C64.8086 90.735 65.3495 89.3711 66.4493 88.344C67.549 87.3169 69.0094 86.8118 70.4698 86.8118H72.8496C75.9506 86.8118 78.5108 89.2027 78.5108 92.0989C78.5108 93.4627 77.9699 94.8266 76.8701 95.8537C75.7704 96.7124 74.4903 97.3859 72.8496 97.3859ZM70.6681 90.9202C70.3075 90.9202 70.1272 91.0886 69.9289 91.257C69.7486 91.4253 69.5683 91.5937 69.5683 91.9305C69.5683 92.4356 70.1092 92.9576 70.6681 92.9576H73.0299C73.3905 92.9576 73.5708 92.7892 73.7691 92.6208C73.9494 92.4525 74.1297 92.2841 74.1297 91.9473C74.1297 91.4422 73.5888 90.9202 73.0299 90.9202H70.6681Z" fill="#125548"/>
<path d="M100.211 97.3859H97.8311C94.7301 97.3859 92.1699 94.995 92.1699 92.0989C92.1699 90.735 92.7108 89.3711 93.8106 88.344C94.9104 87.3169 96.3707 86.8118 97.8311 86.8118H100.211C103.312 86.8118 105.872 89.2027 105.872 92.0989C105.872 93.4627 105.331 94.8266 104.231 95.8537C103.132 96.7124 101.852 97.3859 100.211 97.3859ZM98.0114 90.9202C97.6508 90.9202 97.4705 91.0886 97.2722 91.257C97.0919 91.4253 96.9116 91.7621 96.9116 91.9305C96.9116 92.4356 97.4525 92.9576 98.0114 92.9576H100.373C100.734 92.9576 100.914 92.7892 101.112 92.6208C101.293 92.4525 101.473 92.1157 101.473 91.9473C101.473 91.4422 100.932 90.9202 100.373 90.9202H98.0114Z" fill="#125548"/>
<path d="M87.8138 94.153H83.2524C81.9724 94.153 80.8906 93.1258 80.8906 91.9304C80.8906 90.7349 81.9904 89.7078 83.2524 89.7078H87.8138C89.0939 89.7078 90.1937 90.7349 90.1937 91.9304C90.1937 93.1258 88.9136 94.153 87.8138 94.153Z" fill="#125548"/>
<path d="M120.104 99.4402C119.564 99.4402 119.005 99.2718 118.644 98.935C117.725 98.2615 117.544 96.8977 118.464 95.8705C125.207 88.5461 128.867 79.1842 128.867 69.6372C128.867 47.327 109.359 29.0916 85.4523 29.0916C61.5456 29.0916 42.038 47.3102 42.038 69.6203C42.038 79.3358 45.6799 88.5292 52.4408 95.8537C53.162 96.7124 53.162 98.0595 52.2605 98.9182C51.3591 99.5917 49.8987 99.5917 48.9792 98.7498C41.4971 90.7518 37.4766 80.3629 37.4766 69.6203C37.6569 44.936 59.0034 25 85.4343 25C111.865 25 133.41 44.936 133.41 69.6203C133.41 80.346 129.389 90.5666 121.925 98.7498C121.384 99.2549 120.826 99.4233 120.104 99.4233V99.4402Z" fill="#125548"/>
<path d="M60.2647 124.983C59.9041 124.983 59.3452 124.815 58.9846 124.646C57.8848 123.973 57.7045 122.609 58.4437 121.75L72.1279 102.505C72.8491 101.478 74.3094 101.309 75.2289 101.999C76.3287 102.673 76.509 104.037 75.7698 104.896L62.0856 123.973C61.7251 124.646 61.1662 125 60.2647 125V124.983Z" fill="#125548"/>
<path d="M110.602 124.983C109.88 124.983 109.141 124.647 108.781 123.956L95.0965 104.879C94.3754 103.852 94.7359 102.488 95.6374 101.983C96.7372 101.309 98.1976 101.646 98.7384 102.488L112.423 121.734C113.144 122.761 112.783 124.125 111.882 124.63C111.341 124.798 110.962 124.966 110.602 124.966V124.983Z" fill="#125548"/>
<path d="M101.502 112.203H69.5903C68.3103 112.203 67.2285 111.176 67.2285 109.997C67.2285 108.819 68.3283 107.775 69.5903 107.775H101.502C102.782 107.775 103.882 108.802 103.882 109.997C103.702 111.193 102.602 112.203 101.502 112.203Z" fill="#125548"/>
<path d="M106.065 120.723H65.0302C63.7502 120.723 62.6504 119.696 62.6504 118.517C62.6504 117.339 63.7502 116.295 65.0302 116.295H106.065C107.345 116.295 108.427 117.322 108.427 118.517C108.246 119.713 107.146 120.723 106.065 120.723Z" fill="#125548"/>
</svg>
