<svg width="171" height="150" viewBox="0 0 171 150" fill="none" xmlns="http://www.w3.org/2000/svg">
<rect x="0.75" width="170.25" height="150" rx="75" fill="white"/>
<g clip-path="url(#clip0_68_3946)">
<path d="M96.8401 64.8614V94.0715H67.63C67.63 89.3979 63.9579 85.7257 59.2843 85.7257C54.6106 85.7257 50.9385 89.3979 50.9385 94.0715H42.7597C40.256 94.0715 38.4199 92.0685 38.4199 89.7317V52.5097C38.4199 50.006 40.4229 48.1699 42.7597 48.1699H92.5003C94.8371 48.1699 96.8401 50.1729 96.8401 52.5097V64.8614Z" fill="#CFF57F"/>
<path d="M115.533 102.417C120.142 102.417 123.879 98.6808 123.879 94.0716C123.879 89.4623 120.142 85.7258 115.533 85.7258C110.924 85.7258 107.188 89.4623 107.188 94.0716C107.188 98.6808 110.924 102.417 115.533 102.417Z" fill="white"/>
<path d="M59.2852 102.417C63.8944 102.417 67.6309 98.6808 67.6309 94.0716C67.6309 89.4623 63.8944 85.7258 59.2852 85.7258C54.676 85.7258 50.9395 89.4623 50.9395 94.0716C50.9395 98.6808 54.676 102.417 59.2852 102.417Z" fill="white"/>
<path d="M133.896 79.3829H109.359V70.7034H129.556C131.726 73.0402 133.228 76.0446 133.896 79.3829Z" fill="white"/>
<path d="M134.399 83.0552V93.9046H123.883C123.883 89.231 120.211 85.5589 115.537 85.5589C110.864 85.5589 107.191 89.231 107.191 93.9046H96.6758V64.8615H115.871C121.212 64.8615 126.053 67.1983 129.391 70.7035H109.361V79.383H133.898C134.232 80.5514 134.399 81.8868 134.399 83.0552Z" fill="white"/>
<path d="M133.896 81.5528C132.894 81.5528 132.059 80.8852 131.893 79.8837C131.225 77.0461 129.89 74.3755 127.887 72.2056C127.052 71.3711 127.219 70.0357 128.053 69.2012C128.888 68.3666 130.223 68.5335 131.058 69.3681C133.562 72.0387 135.231 75.377 136.065 79.0491C136.232 80.2175 135.565 81.219 134.396 81.5528C134.229 81.3859 134.062 81.5528 133.896 81.5528Z" fill="#125548"/>
<path d="M96.839 96.0744H67.6289C66.4605 96.0744 65.459 95.0729 65.459 93.9045C65.459 92.7361 66.4605 91.7346 67.6289 91.7346H96.839C98.0074 91.7346 99.0088 92.7361 99.0088 93.9045C99.0088 95.0729 97.8404 96.0744 96.839 96.0744Z" fill="#125548"/>
<path d="M50.9385 96.0744H42.7597C39.2545 96.0744 36.25 93.2369 36.25 89.5648V52.5097C36.25 49.0045 39.0875 46 42.7597 46H92.5003C96.0055 46 99.0099 48.8376 99.0099 52.5097V64.8614C99.0099 66.0298 98.0084 67.0313 96.84 67.0313C95.6716 67.0313 94.6701 66.0298 94.6701 64.8614V52.5097C94.6701 51.1744 93.6687 50.1729 92.3333 50.1729H42.7597C41.4244 50.1729 40.4229 51.1744 40.4229 52.5097V89.7317C40.4229 91.067 41.4244 92.0685 42.7597 92.0685H50.9385C52.1069 92.0685 53.1084 93.07 53.1084 94.2384C53.1084 95.4068 51.94 96.0744 50.9385 96.0744Z" fill="#125548"/>
<path d="M59.2832 104.42C53.6081 104.42 48.7676 99.7466 48.7676 93.9045C48.7676 88.0625 53.4412 83.3889 59.2832 83.3889C65.1252 83.3889 69.7988 88.0625 69.7988 93.9045C69.7988 99.7466 64.9583 104.42 59.2832 104.42ZM59.2832 87.7287C55.778 87.7287 52.9404 90.5662 52.9404 94.0714C52.9404 97.5767 55.778 100.414 59.2832 100.414C62.7884 100.414 65.626 97.5767 65.626 94.0714C65.626 90.5662 62.6215 87.7287 59.2832 87.7287Z" fill="#125548"/>
<path d="M134.397 96.0745H123.881C122.712 96.0745 121.711 95.073 121.711 93.9046C121.711 92.7362 122.712 91.7347 123.881 91.7347H132.227V81.2191H109.359C108.191 81.2191 107.189 80.2176 107.189 79.0492V70.3696C107.189 69.2012 108.191 68.1997 109.359 68.1997H123.38C121.21 67.0313 118.707 66.5306 116.036 66.5306H98.8437V91.5678H107.189C108.358 91.5678 109.359 92.5693 109.359 93.7377C109.359 94.9061 108.358 96.0745 107.189 96.0745H96.6738C95.5054 96.0745 94.5039 95.073 94.5039 93.9046V64.8614C94.5039 63.693 95.5054 62.6915 96.6738 62.6915H115.869C121.544 62.6915 127.052 65.0283 130.891 69.2012C131.392 69.8689 131.559 70.7035 131.225 71.3711C130.891 72.2057 130.224 72.5395 129.389 72.5395H111.362V77.0462H133.896C134.897 77.0462 135.732 77.7139 135.899 78.7154C136.233 80.0507 136.233 81.386 136.233 82.8882V93.7377C136.4 95.073 135.398 96.0745 134.397 96.0745Z" fill="#125548"/>
<path d="M115.535 104.42C109.86 104.42 105.02 99.7466 105.02 93.9045C105.02 88.0625 109.693 83.3889 115.535 83.3889C121.377 83.3889 126.051 88.0625 126.051 93.9045C126.051 99.7466 121.21 104.42 115.535 104.42ZM115.535 87.7287C112.03 87.7287 109.192 90.5662 109.192 94.0714C109.192 97.5767 112.03 100.414 115.535 100.414C119.04 100.414 121.878 97.5767 121.878 94.0714C121.878 90.5662 119.04 87.7287 115.535 87.7287Z" fill="#125548"/>
<path d="M75.9766 58.5186H57.1152C55.9468 58.5186 54.9453 57.5171 54.9453 56.3487C54.9453 55.1803 55.9468 54.1788 57.1152 54.1788H75.9766C77.145 54.1788 78.1465 55.1803 78.1465 56.3487C78.1465 57.5171 76.9781 58.5186 75.9766 58.5186Z" fill="#125548"/>
<path d="M75.9775 69.0342H61.289C60.1206 69.0342 59.1191 68.0327 59.1191 66.8643C59.1191 65.6959 60.1206 64.6945 61.289 64.6945H75.9775C77.1459 64.6945 78.1474 65.6959 78.1474 66.8643C78.1474 68.0327 76.979 69.0342 75.9775 69.0342Z" fill="#125548"/>
<path d="M75.9746 79.383H67.6289C66.4605 79.383 65.459 78.3815 65.459 77.2131C65.459 76.0447 66.4605 75.0432 67.6289 75.0432H75.9746C77.143 75.0432 78.1445 76.0447 78.1445 77.2131C78.1445 78.3815 76.9761 79.383 75.9746 79.383Z" fill="#125548"/>
</g>
<defs>
<clipPath id="clip0_68_3946">
<rect width="102" height="102" fill="white" transform="translate(34.75 24)"/>
</clipPath>
</defs>
</svg>
